# File created by Blade
# Date/Time:  Tue Jan 27 18:12:51 2015
#---------------------------------------------------------
:version 1.10
:name HOM
:units
  mass 1.0
  length 1.000000
  angle deg
:documentation
     Acclaim Skeleton File
:root
   axis xyz
   order TX TY TZ RX RY RZ
   position 0.000000 0.000000 0.000000
   orientation 0 0 0
:bonedata
   begin
      id 1
      name Spine_dum
      direction 0.000000 1.000000 0.000000
      length 5.195262
      axis 0.0 0.0 0.0 xyz
   end
   begin
      id 2
      name LeftUpLeg_dum
      direction 1.000000 0.000000 0.000000
      length 3.351363
      axis 0.0 0.0 0.0 xyz
   end
   begin
      id 3
      name RightUpLeg_dum
      direction -1.000000 0.000000 0.000000
      length 3.351363
      axis 0.0 0.0 0.0 xyz
   end
   begin
      id 4
      name Spine
      direction 0.000000 1.000000 0.000000
      length 0.000000
      axis 0.0 0.0 0.0 xyz
      dof rx ry rz
   end
   begin
      id 5
      name Spine_dum1
      direction 0.000000 1.000000 0.000000
      length 15.653875
      axis 0.0 0.0 0.0 xyz
   end
   begin
      id 6
      name Spine_dum2
      direction 0.000000 1.000000 0.000000
      length 10.329768
      axis 0.0 0.0 0.0 xyz
   end
   begin
      id 7
      name Spine_dum3
      direction 0.000000 1.000000 0.000000
      length 10.329768
      axis 0.0 0.0 0.0 xyz
   end
   begin
      id 8
      name Head
      direction 0.000000 1.000000 0.000000
      length 4.527550
      axis 0.0 0.0 0.0 xyz
      dof rx ry rz
   end
   begin
      id 9
      name LeftShoulder
      direction 1.000000 0.000000 0.000000
      length 6.996006
      axis 0.0 0.0 -90.0 xyz
      dof rx ry rz
   end
   begin
      id 10
      name LeftArm
      direction 1.000000 0.000000 0.000000
      length 10.209302
      axis 0.0 0.0 -90.0 xyz
      dof rx ry rz
   end
   begin
      id 11
      name LeftForeArm
      direction 1.000000 0.000000 0.000000
      length 8.563163
      axis 0.0 0.0 -90.0 xyz
      dof ry rz rx
   end
   begin
      id 12
      name LeftHand
      direction 0.000000 0.000000 0.000000
      length 0.000000
      axis 0.0 0.0 -90.0 xyz
      dof rx ry rz
   end
   begin
      id 13
      name LeftHand_dum1
      direction 0.000000 0.000000 0.000000
      length 0.000000
      axis 0.0 0.0 -90.0 xyz
   end
   begin
      id 14
      name LeftHand_dum2
      direction 1.000000 0.000000 0.000000
      length 3.937000
      axis 0.0 0.0 -90.0 xyz
   end
   begin
      id 15
      name LeftHandThumb1
      direction 0.000000 0.000000 1.000000
      length 3.937000
      axis 0.0 0.0 -90.0 xyz
      dof rx rz ry
   end
   begin
      id 16
      name RightShoulder
      direction -1.000000 0.000000 0.000000
      length 6.996006
      axis 0.0 0.0 90.0 xyz
      dof rx ry rz
   end
   begin
      id 17
      name RightArm
      direction -1.000000 0.000000 0.000000
      length 10.209302
      axis 0.0 0.0 90.0 xyz
      dof rx ry rz
   end
   begin
      id 18
      name RightForeArm
      direction -1.000000 0.000000 0.000000
      length 8.563163
      axis 0.0 0.0 90.0 xyz
      dof ry rz rx
   end
   begin
      id 19
      name RightHand
      direction 0.000000 0.000000 0.000000
      length 0.000000
      axis 0.0 0.0 90.0 xyz
      dof rx ry rz
   end
   begin
      id 20
      name RightHand_dum1
      direction 0.000000 0.000000 0.000000
      length 0.000000
      axis 0.0 0.0 90.0 xyz
   end
   begin
      id 21
      name RightHand_dum2
      direction -1.000000 0.000000 0.000000
      length 3.937000
      axis 0.0 0.0 90.0 xyz
   end
   begin
      id 22
      name RightHandThumb1
      direction 0.000000 0.000000 1.000000
      length 3.937000
      axis 0.0 0.0 90.0 xyz
      dof rx rz ry
   end
   begin
      id 23
      name LeftUpLeg
      direction 0.000000 -1.000000 0.000000
      length 16.346831
      axis 0.0 0.0 0.0 xyz
      dof rx ry rz
   end
   begin
      id 24
      name LeftLeg
      direction 0.000000 -1.000000 0.000000
      length 13.959795
      axis 0.0 0.0 0.0 xyz
      dof rx ry rz
   end
   begin
      id 25
      name LeftFoot
      direction 0.000000 -0.258819 0.965926
      length 5.165550
      axis 15.0 0.0 0.0 xyz
      dof rx ry rz
   end
   begin
      id 26
      name LeftToeBase
      direction 0.000000 0.000000 1.000000
      length 2.952750
      axis 0.0 0.0 0.0 xyz
      dof rx ry rz
   end
   begin
      id 27
      name RightUpLeg
      direction 0.000000 -1.000000 0.000000
      length 16.346831
      axis 0.0 0.0 0.0 xyz
      dof rx ry rz
   end
   begin
      id 28
      name RightLeg
      direction 0.000000 -1.000000 0.000000
      length 13.959795
      axis 0.0 0.0 0.0 xyz
      dof rx ry rz
   end
   begin
      id 29
      name RightFoot
      direction 0.000000 -0.258819 0.965926
      length 5.165550
      axis 15.0 0.0 0.0 xyz
      dof rx ry rz
   end
   begin
      id 30
      name RightToeBase
      direction 0.000000 0.000000 1.000000
      length 2.952750
      axis 0.0 0.0 0.0 xyz
      dof rx ry rz
   end
:hierarchy
   begin
      root Spine_dum LeftUpLeg_dum RightUpLeg_dum
      Spine_dum Spine
      LeftUpLeg_dum LeftUpLeg
      RightUpLeg_dum RightUpLeg
      Spine Spine_dum1 Spine_dum2 Spine_dum3
      Spine_dum1 Head
      Spine_dum2 LeftShoulder
      Spine_dum3 RightShoulder
      LeftShoulder LeftArm
      LeftArm LeftForeArm
      LeftForeArm LeftHand
      LeftHand LeftHand_dum1 LeftHand_dum2
      LeftHand_dum1 LeftHandThumb1
      RightShoulder RightArm
      RightArm RightForeArm
      RightForeArm RightHand
      RightHand RightHand_dum1 RightHand_dum2
      RightHand_dum1 RightHandThumb1
      LeftUpLeg LeftLeg
      LeftLeg LeftFoot
      LeftFoot LeftToeBase
      RightUpLeg RightLeg
      RightLeg RightFoot
      RightFoot RightToeBase
   end

# File created by Blade
# Date/Time:  Tue Jan 27 18:12:42 2015
# Frame Rate: 120.000 fps
#------------------------------------------------------
:FULLY-SPECIFIED
:DEGREES
263
root -1.360100 31.801073 -6.734458 6.366533 15.574190 4.671648
Spine -6.995053 -0.457677 -0.500704
Head 13.053926 -11.088296 -3.016570
LeftShoulder -11.090958 17.690920 3.919791
LeftArm 24.542821 37.882098 -69.618539
LeftForeArm -2.538443 -0.000000 14.488532
LeftHand -11.417869 -0.000000 -3.241544
LeftHandThumb1 -26.253704 0.000000 33.147579
RightShoulder 7.918420 29.772222 -10.630897
RightArm 30.426632 8.489902 105.309298
RightForeArm 15.361976 -0.000000 150.818440
RightHand -5.867531 0.000000 0.540449
RightHandThumb1 -24.326973 -0.000000 -32.862282
LeftUpLeg -3.161211 -4.217540 -1.778336
LeftLeg 1.656251 -0.000000 -0.000000
LeftFoot -15.337017 12.442149 -23.422792
LeftToeBase 8.559472 -0.000000 -0.000000
RightUpLeg 2.298744 -8.745262 -4.449097
RightLeg -3.278610 -0.000000 0.000000
RightFoot -17.377240 -17.493060 10.786053
RightToeBase 5.483034 -0.000000 -0.000000
264
root -1.360025 31.800279 -6.728275 6.363962 15.791464 4.692153
Spine -7.002353 -0.641618 -0.503269
Head 12.976758 -10.949629 -3.040701
LeftShoulder -11.114564 17.723410 3.855762
LeftArm 24.480046 38.084560 -69.823507
LeftForeArm -2.462755 -0.000000 14.622865
LeftHand -11.324179 0.000000 -3.061093
LeftHandThumb1 -26.253704 0.000000 33.147579
RightShoulder 7.690841 29.296156 -10.653957
RightArm 30.319669 8.278856 104.759154
RightForeArm 15.018417 -0.000000 150.600254
RightHand -6.068015 -0.000000 0.146812
RightHandThumb1 -24.326973 -0.000000 -32.862282
LeftUpLeg -3.141884 -4.243034 -1.779557
LeftLeg 1.615840 -0.000000 -0.000000
LeftFoot -15.240016 12.302578 -23.379411
LeftToeBase 8.544087 -0.000000 -0.000000
RightUpLeg 2.347787 -8.716184 -4.448778
RightLeg -3.245005 -0.000000 0.000000
RightFoot -17.477728 -17.696156 10.848306
RightToeBase 5.486324 -0.000000 -0.000000
265
root -1.359709 31.799482 -6.722691 6.350670 15.991459 4.715000
Spine -6.983172 -0.831564 -0.504327
Head 12.859224 -10.832509 -3.069669
LeftShoulder -11.157446 17.792651 3.778574
LeftArm 24.490738 38.336901 -69.973955
LeftForeArm -2.540909 0.000000 14.746709
LeftHand -11.166015 -0.000000 -3.260120
LeftHandThumb1 -26.253704 0.000000 33.147579
RightShoulder 7.410004 28.815476 -10.670317
RightArm 30.247043 7.976790 104.256625
RightForeArm 14.698457 0.000000 150.337370
RightHand -6.381224 0.000000 -0.012231
RightHandThumb1 -24.326973 -0.000000 -32.862282
LeftUpLeg -3.113549 -4.269845 -1.787949
LeftLeg 1.577158 -0.000000 -0.000000
LeftFoot -15.154101 12.184995 -23.359997
LeftToeBase 8.530785 -0.000000 -0.000000
RightUpLeg 2.401850 -8.723785 -4.455551
RightLeg -3.207628 -0.000000 0.000000
RightFoot -17.566366 -17.847280 10.916824
RightToeBase 5.475687 -0.000000 -0.000000
266
root -1.359823 31.798304 -6.717402 6.339008 16.183985 4.730321
Spine -6.966112 -1.024970 -0.503180
Head 12.744942 -10.715467 -3.093532
LeftShoulder -11.179615 17.845219 3.725434
LeftArm 24.477930 38.607737 -70.138502
LeftForeArm -2.598481 0.000000 14.881981
LeftHand -11.099522 0.000000 -3.900776
LeftHandThumb1 -26.253704 0.000000 33.147579
RightShoulder 7.142240 28.291117 -10.699344
RightArm 30.203230 7.554966 103.669024
RightForeArm 14.382867 -0.000000 150.125344
RightHand -6.677987 -0.000000 -0.337137
RightHandThumb1 -24.326973 -0.000000 -32.862282
LeftUpLeg -3.095540 -4.277217 -1.786357
LeftLeg 1.556238 -0.000000 -0.000000
LeftFoot -15.075123 12.050042 -23.325464
LeftToeBase 8.502023 -0.000000 -0.000000
RightUpLeg 2.458092 -8.743697 -4.454073
RightLeg -3.189004 -0.000000 0.000000
RightFoot -17.643026 -17.979332 10.961295
RightToeBase 5.519245 -0.000000 -0.000000
